<svg viewBox="0 0 284.34537 400" width="284.34537" height="400" preserveAspectRatio="xMidYMid" id="svg119" xmlns="http://www.w3.org/2000/svg"><defs id="defs1"><clipPath id="__lottie_element_2"><rect width="400" height="400" x="0" y="0" id="rect1"/></clipPath></defs><g clip-path="url(#__lottie_element_2)" id="g119" transform="translate(-56.223971)"><g opacity=".1" style="display:block" id="g2"><g opacity="1" transform="translate(181.38,388.29501)" id="g1"><path fill="#2b2b2b" fill-opacity="1" d="m89.610001 1.725S8.7200003-11.705 8.7200003-11.705-89.610001-1.405-89.610001-1.405-13.47 11.705-13.47 11.705z" id="path1"/></g></g><g transform="rotate(-4.5899229e-4,205.71268,-8.2396468e-4)" opacity="1" style="display:block" id="g19"><g opacity="1" transform="translate(244.341,72.830002)" id="g3"><path fill="#dfbca4" fill-opacity="1" d="m2.0090001 49.560001S37.599998 35.369999 37.599998 35.369999s-24.060998-76.5-24.060998-76.5-9.3699999-4.75-9.3699999-4.75-9.5799999-4.610001-9.5799999-4.610001S-19.961-56.110001-19.961-56.110001-30.910999-39.689999-30.910999-39.689999s-2.229-1.150001-2.229-1.150001-4.459999 9.219999-4.459999 9.219999 21.098999 87.730002 21.098999 87.730002z" id="path2"/></g><g opacity="1" transform="translate(216.35001,87.309998)" id="g4"><path fill="#c3977a" fill-opacity="1" d="m-9.54-45.959999s21.03 87.59 21.03 87.59-3.0199997 3.25-3.0199997 3.25-8.0000003 1.079998-8.0000003 1.079998-5.6200001-6.989998-5.6200001-6.989998-3.9590001-10.010002-3.9590001-10.010002S-11.49 2.5899999-11.49 2.5899999z" id="path3"/></g><g opacity="1" id="g11"><g opacity="1" transform="translate(203.52,88.191002)" id="g5"><path fill="#c3977a" fill-opacity="1" d="m3.29-46.84s21.03 87.589001 21.03 87.589001-3.020001 3.25-3.020001 3.25C14.307 44.945999 7.3130002 45.893002.31999999 46.84-7.8930001 21.548-16.107-3.744-24.32-29.037001-15.117-34.971001-5.9130001-40.904999 3.29-46.84z" id="path4"/></g><g opacity="1" transform="translate(244.341,72.830002)" id="g6"><path fill="#dfbca4" fill-opacity="1" d="m2.0090001 49.560001S37.599998 35.369999 37.599998 35.369999s-24.060998-76.5-24.060998-76.5-9.3699999-4.75-9.3699999-4.75-9.5799999-4.610001-9.5799999-4.610001S-19.961-56.110001-19.961-56.110001-30.910999-39.689999-30.910999-39.689999s-2.229-1.150001-2.229-1.150001-4.459999 9.219999-4.459999 9.219999 21.098999 87.730002 21.098999 87.730002z" id="path5"/></g><g opacity="1" transform="translate(248.045,83.739998)" id="g7"><path fill="#8a6651" fill-opacity="1" d="m2.4860001-2.6300001s-1.222 5.2600002-1.222 5.2600002S-2.4860001-1.11-2.4860001-1.11z" id="path6"/></g><g opacity="1" transform="translate(236.99001,15.85)" id="g8"><path fill="#e8ef78" fill-opacity="1" d="m20.959999 15.85S15.99 1.66 15.99 1.66-18.73-15.85-18.73-15.85-20.959999 1.08-20.959999 1.08s8.349999-.21 8.349999-.21S1.939 6.4899998 1.939 6.4899998 11.52 11.1 11.52 11.1z" id="path7"/></g><g opacity="1" transform="translate(187.755,30.295)" id="g9"><path fill="#d9e253" fill-opacity="1" d="m30.504999-30.295s-49.49 16.43-49.49 16.43-13.029998 34.65-13.029998 34.65-4.610001 9.51-4.610001 9.51 13.9-4.83 13.9-4.83 13.8299995-4.61 13.8299995-4.61 13.8300004-4.9 13.8300004-4.9S19.055 11.055 19.055 11.055s6.619999-8.21 6.619999-8.21S36.625-13.575 36.625-13.575z" id="path8"/></g><g opacity="1" transform="translate(176.95,84.860001)" id="g10"><path fill="#b8c645" fill-opacity="1" d="m29.860001-43.509998S16.1-38.68 16.1-38.68 1.91-33.709999 1.91-33.709999-11.92-29.1-11.92-29.1s-13.9 4.83-13.9 4.83-4.040001 67.779998-4.040001 67.779998S12.913 53.875 12.913 53.875 30.754999 4.138 30.754999 4.138C30.754999 4.138 25.32-34 25.32-34z" id="path9"/></g></g><g opacity="1" transform="translate(231.58501,138.31)" id="g12"><path fill="#8a6651" fill-opacity="1" d="m-14.764-5.04S-3.2449999 15.92-3.2449999 15.92 14.764-15.92 14.764-15.92-3.7449999-9.3699999-3.7449999-9.3699999z" id="path11"/></g><g opacity="1" id="g17"><g opacity="1" transform="translate(249.7,59.360001)" id="g13"><path fill="#c3977a" fill-opacity="1" d="m-10.12-7.9200001S-2.9100001 11.67-2.9100001 11.67 10.12-11.67 10.12-11.67z" id="path12"/></g><g opacity="1" transform="translate(231.55,67.464996)" id="g14"><path fill="#c3977a" fill-opacity="1" d="m3.21-15.165s-17.22 12.75-17.22 12.75 14.62000001 1.86999998 14.62000001 1.86999998C.61000001-.54500002 14.01 15.165 14.01 15.165z" id="path13"/></g><g opacity="1" transform="translate(226.14999,58.674999)" id="g15"><path fill="#b8c645" fill-opacity="1" d="m8.6099997-6.375S-7.5300002.755-7.5300002.755s-1.0799995 5.62-1.0799995 5.62z" id="path14"/></g><g opacity="1" transform="translate(249.7,48.049999)" id="g16"><path fill="#b8c645" fill-opacity="1" d="m-10.12 3.3900001S8.54-3.3900001 8.54-3.3900001s1.58 3.03000009 1.58 3.03000009z" id="path15"/></g></g><g opacity="1" transform="translate(242.645,67.035004)" id="g18"><path fill="#e8c9b6" fill-opacity="1" d="m-7.8850002-14.735S2.914 15.595 2.914 15.595s4.9710002-1.52 4.9710002-1.52-3.6850004-9.9849998-3.6850004-9.9849998S-3.066-15.595-3.066-15.595z" id="path17"/></g></g><g transform="rotate(-4.5899229e-4,205.71268,-8.2396468e-4)" opacity="1" style="display:block" id="g22"><g opacity="1" transform="translate(250.21001,97.43)" id="g20"><path fill="#99c26c" fill-opacity="1" d="M16.82-7.8899999 2.1900001 2.27s-19.0109991.5-19.0109991.5S3.71 7.8899999 3.71 7.8899999z" id="path19"/></g><g opacity="1" transform="translate(250.21001,94.870003)" id="g21"><path fill="#5a753c" fill-opacity="1" d="m16.82-5.3299999s-5.98 2.1599998-5.98 2.1599998S2.549-1.8 2.549-1.8s-5.3299999 1.8-5.3299999 1.8S-9.04 3.5999999-9.04 3.5999999s-7.780999 1.73-7.780999 1.73 19.0109991-.5 19.0109991-.5z" id="path20"/></g></g><g transform="rotate(-4.5899229e-4,205.71268,-8.2396468e-4)" opacity="1" style="display:block" id="g24"><g opacity="1" transform="translate(151.56,191.61)" id="g23"><path fill="#738d56" fill-opacity="1" d="m4.1799998-22.98S-18.01 22.98-18.01 22.98 18.01 12.9 18.01 12.9z" id="path22"/></g></g><g transform="rotate(-4.5899229e-4,205.71268,-8.2396468e-4)" opacity="1" style="display:block" id="g26"><g opacity="1" transform="translate(144.715,230.50999)" id="g25"><path fill="#99c26c" fill-opacity="1" d="m11.165-22.190001S.72500002 22.190001.72500002 22.190001-7.0050001 10.15-7.0050001 10.15s.8099999-10.141.8099999-10.141S-11.165-15.92-11.165-15.92z" id="path24"/></g></g><g transform="rotate(-4.5899229e-4,205.71268,-8.2396468e-4)" opacity="1" style="display:block" id="g29"><g opacity="1" transform="translate(135.55,242.07001)" id="g27"><path fill="#dfbca4" fill-opacity="1" d="m9.8900003 10.63s-9.04000028.93-9.04000028.93S-9.8900003 8.4799995-9.8900003 8.4799995C-9.8900003 8.4799995 2.98-11.56 2.98-11.56z" id="path26"/></g><g opacity="1" transform="translate(125.37,246.55499)" id="g28"><path fill="#c3977a" fill-opacity="1" d="m11.03 7.0749998S-7.8600001-8.5649996-7.8600001-8.5649996-11.03 3.8150001-11.03 3.8150001s8.3499999 4.7499995 8.3499999 4.7499995z" id="path27"/></g></g><g opacity="1" style="display:block" id="g33"><g opacity="1" transform="translate(187.435,371.625)" id="g30"><path fill="#dfbca4" fill-opacity="1" d="m2.875-20.245001s-2.869 2.133001-2.869 2.133001-12.251 9.1069999-12.251 9.1069999S2.665 20.245001 2.665 20.245001 12.245-11.675 12.245-11.675z" id="path29"/></g><g opacity="1" transform="translate(198.595,386.89499)" id="g31"><path fill="#c3977a" fill-opacity="1" d="m-8.4949999 4.9749999S8.4949999 4.605 8.4949999 4.605s-14.04-9.5799999-14.04-9.5799999z" id="path30"/></g><g opacity="1" transform="translate(193.16,355.41501)" id="g32"><path fill="#8a6651" fill-opacity="1" d="m6.52 4.5349998S-6.52-1.225-6.52-1.225-3.5-4.5349998-3.5-4.5349998 2.641 1.024 2.641 1.024z" id="path31"/></g></g><g opacity="1" style="display:block" id="g37"><g opacity="1" transform="translate(123.97,310.79001)" id="g34"><path fill="#dfbca4" fill-opacity="1" d="m5.4000001-14.87s-13.1800003-4.759999-13.1800003-4.759999S-14.91 19.629999-14.91 19.629999s29.82-25.859999 29.82-25.859999z" id="path33"/></g><g opacity="1" transform="translate(114.75,331.39001)" id="g35"><path fill="#c3977a" fill-opacity="1" d="m2.8099999-8.3199997S5.6900001 8.3199997 5.6900001 8.3199997-5.6900001-.97000003-5.6900001-.97000003z" id="path34"/></g><g opacity="1" transform="translate(134.125,303.04999)" id="g36"><path fill="#8a6651" fill-opacity="1" d="m-4.7550001-7.1300001S-1.655 7.1300001-1.655 7.1300001 4.7550001 1.51 4.7550001 1.51s-6.009-5.4589999-6.009-5.4589999z" id="path35"/></g></g><g transform="rotate(7.1678324,183.03274,-19.919115)" opacity="1" style="display:none" id="g40"><g opacity="1" transform="matrix(1.0866355,0,0,1.0866355,255.05,60.623001)" id="g38"><path fill="#2b2b2b" fill-opacity="1" d="m-.05-4.0029998c-2.2090001.0-4.0000002 1.7909999-4.0000002 3.9999998.0 2.2090001 1.7910001 4 4.0000002 4C2.1789999 4.003 4 2.2249999 4.0489998-.003 4.0500002-2.2119999 2.26-4.0019999.051-4.0029998c-.035.0-.067-.001-.101.0z" id="path37"/></g><g opacity="1" transform="matrix(1.0866355,0,0,1.0866355,228.44099,70.261002)" id="g39"><path fill="#2b2b2b" fill-opacity="1" d="M.049-4.0609999C-2.21-4.0339999-4.0339999-2.2090001-4.0609999.05-4.013 2.2809999-2.1830001 4.0609999.049 4.0500002c2.2089999.0 3.9999998-1.7910001 3.9999998-4.0000002C4.0609999-2.1819999 2.28-4.0120001.049-4.0609999z" id="path38"/></g></g><g style="display:none" transform="rotate(-4.5899229e-4,205.71268,-8.2396468e-4)" opacity="1" id="g43"><g opacity="1" transform="matrix(1.0869974,0,0,1.0869974,255.05,60.623001)" id="g41"><path fill="#2b2b2b" fill-opacity="1" d="m-.05-4.0029998c-2.2090001.0-4.0000002 1.7909999-4.0000002 3.9999998.0 2.2090001 1.7910001 4 4.0000002 4C2.1789999 4.003 4 2.2249999 4.0489998-.003 4.0500002-2.2119999 2.26-4.0019999.051-4.0029998c-.035.0-.067-.001-.101.0z" id="path40"/></g><g opacity="1" transform="matrix(1.0869974,0,0,1.0869974,228.44099,70.261002)" id="g42"><path fill="#2b2b2b" fill-opacity="1" d="M.049-4.0609999C-2.21-4.0339999-4.0339999-2.2090001-4.0609999.05-4.013 2.2809999-2.1830001 4.0609999.049 4.0500002c2.2089999.0 3.9999998-1.7910001 3.9999998-4.0000002C4.0609999-2.1819999 2.28-4.0120001.049-4.0609999z" id="path41"/></g></g><g style="display:block" transform="rotate(-4.5899229e-4,205.71268,-8.2396468e-4)" opacity="1" id="g46"><g opacity="1" transform="translate(255.05,60.623001)" id="g44"><path fill="#2b2b2b" fill-opacity="1" d="m-.05-4.0029998c-2.2090001.0-4.0000002 1.7909999-4.0000002 3.9999998.0 2.2090001 1.7910001 4 4.0000002 4C2.1789999 4.003 4 2.2249999 4.0489998-.003 4.0500002-2.2119999 2.26-4.0019999.051-4.0029998c-.035.0-.067-.001-.101.0z" id="path43"/></g><g opacity="1" transform="translate(228.44099,70.261002)" id="g45"><path fill="#2b2b2b" fill-opacity="1" d="M.049-4.0609999C-2.21-4.0339999-4.0339999-2.2090001-4.0609999.05-4.013 2.2809999-2.1830001 4.0609999.049 4.0500002c2.2089999.0 3.9999998-1.7910001 3.9999998-4.0000002C4.0609999-2.1819999 2.28-4.0120001.049-4.0609999z" id="path44"/></g></g><g style="display:none" transform="rotate(0.08446547,-135605.96,135557.48)" opacity="1" id="g49"><g opacity="1" id="g47"><path stroke-linecap="butt" stroke-linejoin="miter" fill-opacity="0" stroke-miterlimit="4" stroke="#2a2a2a" stroke-opacity="1" stroke-width="4" d="m11.25-121.5s6.5 1.75 6.5 1.75 4-4.25 4-4.25" id="path46"/></g><g opacity="1" id="g48"><path stroke-linecap="butt" stroke-linejoin="miter" fill-opacity="0" stroke-miterlimit="4" stroke="#2a2a2a" stroke-opacity="1" stroke-width="4" d="m38.75-127.25S45.5-126 45.5-126s3.25-3.75 3.25-3.75" id="path47"/></g></g><g style="display:none" transform="rotate(-8.7514582,1389.7556,-1414.6211)" opacity="1" id="g52"><g opacity="1" id="g50"><path stroke-linecap="butt" stroke-linejoin="miter" fill-opacity="0" stroke-miterlimit="4" stroke="#2a2a2a" stroke-opacity="1" stroke-width="4" d="m11.25-121.5s6.5 1.75 6.5 1.75 4-4.25 4-4.25" id="path49"/></g><g opacity="1" id="g51"><path stroke-linecap="butt" stroke-linejoin="miter" fill-opacity="0" stroke-miterlimit="4" stroke="#2a2a2a" stroke-opacity="1" stroke-width="4" d="m38.75-127.25S45.5-126 45.5-126s3.25-3.75 3.25-3.75" id="path50"/></g></g><g transform="rotate(-4.5899229e-4,205.71268,-8.2396468e-4)" opacity="1" style="display:block" id="g55"><g opacity="1" transform="translate(194.40601,196.355)" id="g53"><path fill="#5a753c" fill-opacity="1" d="m-38.666-27.726s21.890001 56.41 21.890001 56.41 13.3299989 4.101 13.3299989 4.101C10.591 32.137001 35.291 33.341 35.291 33.341s-3.179-67.626-3.179-67.626-9.407-17.880001-9.407-17.880001S-17.339001-54.84-17.339001-54.84z" id="path52"/></g><g opacity="1" transform="translate(204.86,236.96001)" id="g54"><path fill="#99c26c" fill-opacity="1" d="m24.76-8.441s-51.99-3.478-51.99-3.478 3.25 8.6380001 3.25 8.6380001S-4.8200002 10.48-4.8200002 10.48 27.23 11.919 27.23 11.919s-.25-2.2149995-.25-2.2149995z" id="path53"/></g></g><g opacity="1" style="display:block" id="g58"><g opacity="1" transform="translate(193.515,253.16499)" id="g56"><path fill="#53af8a" fill-opacity="1" d="m-12.635-19.485001S-38.575001 13.795-38.575001 13.795s34.0000012 5.691 34.0000012 5.691S38.575001-4.2849998 38.575001-4.2849998z" id="path55"/></g><g opacity="1" transform="translate(193.515,295.01501)" id="g57"><path fill="#3e8f6e" fill-opacity="1" d="m-38.575001-28.055S-22.945-4.8649998-22.945-4.8649998-31.155001 19.344999-31.155001 19.344999 11.495 46.134998 11.495 46.134998s27.080001-92.269996 27.080001-92.269996z" id="path56"/></g></g><g opacity="1" style="display:block" id="g60"><g opacity="1" transform="translate(167.19,325.04999)" id="g59"><path fill="#35785d" fill-opacity="1" d="m3.3800001-34.900002L-37.82-29.129999C-14.383-7.7870002 9.0530005 13.556 32.490002 34.900002L37.82 16.1z" id="path58"/></g></g><g transform="rotate(-4.5899229e-4,205.71268,-8.2396468e-4)" opacity="1" style="display:block" id="g69"><g opacity="1" transform="translate(255.395,24.605)" id="g61"><path fill="#35785d" fill-opacity="1" d="m7.0949998-2.4849999S-2.415-7.0949998-2.415-7.0949998-7.0949998 2.415-7.0949998 2.415s9.6499999 4.6799998 9.6499999 4.6799998z" id="path60"/></g><g opacity="1" transform="translate(241.41499,29.434999)" id="g62"><path fill="#53af8a" fill-opacity="1" d="m7.0949998-2.4849999s-9.5799997-4.6099999-9.5799997-4.6099999-4.609 9.4999998-4.609 9.4999998S2.566 7.0949998 2.566 7.0949998z" id="path61"/></g><g opacity="1" transform="translate(227.58501,34.115002)" id="g63"><path fill="#35785d" fill-opacity="1" d="m7.0939999-2.415s-9.649-4.6799998-9.649-4.6799998-4.5399997 9.5799997-4.5399997 9.5799997S2.414 7.0949998 2.414 7.0949998z" id="path62"/></g><g opacity="1" transform="translate(213.61501,39.084999)" id="g64"><path fill="#53af8a" fill-opacity="1" d="m7.0949998-2.4849999S-2.415-7.0949998-2.415-7.0949998-7.0949998 2.4849999-7.0949998 2.4849999s9.5799997 4.6099999 9.5799997 4.6099999z" id="path63"/></g><g opacity="1" transform="translate(199.75,43.764999)" id="g65"><path fill="#35785d" fill-opacity="1" d="m7.0599999-2.415S-2.52-7.0949998-2.52-7.0949998-7.0599999 2.4849999-7.0599999 2.4849999 2.52 7.0949998 2.52 7.0949998z" id="path64"/></g><g opacity="1" transform="translate(185.955,48.595001)" id="g66"><path fill="#53af8a" fill-opacity="1" d="m7.0949998-2.415S-2.415-7.0949998-2.415-7.0949998-7.0949998 2.5550001-7.0949998 2.5550001s9.6499999 4.5399997 9.6499999 4.5399997z" id="path65"/></g><g opacity="1" transform="translate(172.125,53.345001)" id="g67"><path fill="#35785d" fill-opacity="1" d="m7.0949998-2.4849999s-9.6499999-4.6099999-9.6499999-4.6099999S-7.0949998 2.415-7.0949998 2.415s9.5799997 4.6799998 9.5799997 4.6799998z" id="path66"/></g><g opacity="1" transform="translate(158.22501,58.174999)" id="g68"><path fill="#53af8a" fill-opacity="1" d="m7.0949998-2.4849999s-9.5799997-4.6099999-9.5799997-4.6099999S-7.0949998 2.415-7.0949998 2.415 2.405 7.0949998 2.405 7.0949998z" id="path67"/></g></g><g transform="rotate(-4.5899229e-4,205.71268,-8.2396468e-4)" opacity="1" style="display:block" id="g71"><g opacity="1" transform="translate(254.96001,224.46001)" id="g70"><path fill="#99c26c" fill-opacity="1" d="m-24.531-11.96s43.44-12.46 43.44-12.46 4.111 3.75 4.111 3.75 1.510001 4.82 1.510001 4.82S-22.871 24.42-22.871 24.42z" id="path69"/></g></g><g transform="rotate(-4.5899229e-4,205.71268,-8.2396468e-4)" opacity="1" style="display:block" id="g73"><g opacity="1" transform="translate(210.44501,216.035)" id="g72"><path fill="#738d56" fill-opacity="1" d="m18.695-31.695s2.95 64.540001 2.95 64.540001-43.29-65.690002-43.29-65.690002 17.8610001 1.510002 17.8610001 1.510002z" id="path71"/></g></g><g transform="rotate(-4.5899229e-4,205.71268,-8.2396468e-4)" opacity="1" style="display:block" id="g89"><g opacity="1" id="g88"><g opacity="1" id="g76"><g opacity="1" transform="translate(287.70001,196.33)" id="g74"><path fill="#dfbca4" fill-opacity="1" d="m-13.83 3.71s6.8400002-7.0599999 6.8400002-7.0599999 8.7199998 6.49 8.7199998 6.49S11.24-12.28 11.24-12.28s2.59.0 2.59.0S9.3590002 8.3199997 9.3590002 8.3199997C9.3590002 8.3199997-8.21 12.28-8.21 12.28z" id="path73"/></g><g opacity="1" transform="translate(289.39001,194.35001)" id="g75"><path fill="#8a6651" fill-opacity="1" d="m-12.14 2.0899999S7.6700001 10.3 7.6700001 10.3 11.49 1.01 11.49 1.01s.65-11.31.65-11.31-2.5899998.0-2.5899998.0S3.28-2.45 3.28-2.45s-3.24 7.5699999-3.24 7.5699999-4.1100002-4.8999999-4.1100002-4.8999999-4.6100001-1.59-4.6100001-1.59z" id="path74"/></g></g><g opacity="1" id="g87"><g opacity="1" transform="translate(303.47501,214.23)" id="g77"><path fill="#738d56" fill-opacity="1" d="m1.585-9.29s.29 18.58.29 18.58-3.75.0-3.75.0.29-18.58.29-18.58z" id="path76"/></g><g opacity="1" transform="translate(293.97,159.77499)" id="g78"><path fill="#b8c645" fill-opacity="1" d="m9.0699997 9.0749998S10.59-9.0749998 10.59-9.0749998-10.59-3.385-10.59-3.385 1.37 9.0749998 1.37 9.0749998z" id="path77"/></g><g opacity="1" transform="translate(281.79501,172.015)" id="g79"><path fill="#b8c645" fill-opacity="1" d="m13.545.145s-19.96-9.1500001-19.96-9.1500001-7.13 18.0100002-7.13 18.0100002S13.545 5.835 13.545 5.835z" id="path78"/></g><g opacity="1" transform="translate(285.505,190.245)" id="g80"><path fill="#b8c645" fill-opacity="1" d="m9.835-9.2250004S-13.436-3.895-13.436-3.895 3.924 9.2250004 3.924 9.2250004s9.511-15.4200006 9.511-15.4200006-3.6.0-3.6.0z" id="path79"/></g><g opacity="1" transform="translate(306.20999,194.495)" id="g81"><path fill="#b8c645" fill-opacity="1" d="m-4.6789999-10.445s-4.4709997 20.601-4.4709997 20.601S9.151 10.446 9.151 10.446.72000003-10.445.72000003-10.445z" id="path80"/></g><g opacity="1" transform="translate(323.5,191.17999)" id="g82"><path fill="#b8c645" fill-opacity="1" d="m-12.889-7.1300001S1.15 11.45 1.15 11.45s11.739-11.38 11.739-11.38-25.778-11.52-25.778-11.52z" id="path81"/></g><g opacity="1" transform="translate(325.59,176.09)" id="g83"><path fill="#b8c645" fill-opacity="1" d="m-14.98 1.1900001s27.22 6.48 27.22 6.48 2.74-15.3400002 2.74-15.3400002-29.96 5.3300002-29.96 5.3300002z" id="path82"/></g><g opacity="1" transform="translate(319.60999,160.35001)" id="g84"><path fill="#b8c645" fill-opacity="1" d="m-9 10.88S14.189-1.3 14.189-1.3-1.58-10.88-1.58-10.88-14.19 8.5-14.19 8.5-9 8.5-9 8.5z" id="path83"/></g><g opacity="1" transform="translate(302.974,176.45)" id="g85"><path fill="#5a753c" fill-opacity="1" d="m7.6350002 7.5999999s-15.2700004.0-15.2700004.0.0-15.1999998.0-15.1999998 15.2700004.0 15.2700004.0z" id="path84"/></g><g opacity="1" transform="translate(302.97501,176.45)" id="g86"><path fill="#d9e253" fill-opacity="1" d="m.065-7.5999999S-7.6350002.04-7.6350002.04s7.7000002 7.5599999 7.7000002 7.5599999S7.6350002.04 7.6350002.04z" id="path85"/></g></g></g></g><g transform="rotate(-4.8108243e-4,205.80762,-8.6403115e-4)" opacity="1" style="display:block" id="g100"><g opacity="1" transform="translate(225.57001,150.485)" id="g90"><path fill="#d9e253" fill-opacity="1" d="m-18.33-34.215S2.77 3.7449999 2.77 3.7449999 18.91 33.564999 18.91 33.564999-18.91 34.215-18.91 34.215z" id="path89"/></g><g opacity="1" transform="translate(165.56906,109.74504)" id="g91"><path fill="#d9e253" fill-opacity="1" d="m34.25-35.474998S-9.8299999 58.884998-9.8299999 58.884998-36.700001 44.845001-36.700001 44.845001-18.48 18.625-18.48 18.625s55.180001-77.509998 55.180001-77.509998z" id="path90"/></g><g opacity="1" transform="translate(177.77905,128.73001)" id="g92"><path fill="#b8c645" fill-opacity="1" d="m22.040001-54.459999s-44.080002 94.360001-44.080002 94.360001S11.02 54.459999 11.02 54.459999s3.74-37.25 3.74-37.25S21.18-11.17 21.18-11.17z" id="path91"/></g><g opacity="1" transform="rotate(-3.5540014e-4,206.63524,-6.4087108e-4)" id="g99"><g opacity="1" transform="translate(198.02,112.955)" id="g93"><path fill="#e8ef78" fill-opacity="1" d="m4.25-62.095001S-9.2200003 70.235001-9.2200003 70.235001s17.8610001 1.510002 17.8610001 1.510002.5799999-68.4300029.5799999-68.4300029-.5-75.0600031-.5-75.0600031z" id="path92"/></g><g opacity="1" transform="translate(202.59,80.285004)" id="g94"><path fill="#5a753c" fill-opacity="1" d="m4.29-10.845s-7.06 4.8300001-7.06 4.8300001S-4.4299998 10.845-4.4299998 10.845s8.8599996-5.9800002 8.8599996-5.9800002z" id="path93"/></g><g opacity="1" transform="translate(202.01401,94.260002)" id="g95"><path fill="#99c26c" fill-opacity="1" d="m5.0050001-9.1099997s-8.8590002 5.9799996-8.8590002 5.9799996S-5.0749998 9.1099997-5.0749998 9.1099997 5.0749998 3.49 5.0749998 3.49z" id="path94"/></g><g opacity="1" transform="translate(201.33501,107.37)" id="g96"><path fill="#5a753c" fill-opacity="1" d="M5.7550001-9.6199999-4.395-4s-1.44 13.6199999-1.44 13.6199999 11.67-6.4899998 11.67-6.4899998z" id="path95"/></g><g opacity="1" transform="translate(200.58,121.27)" id="g97"><path fill="#99c26c" fill-opacity="1" d="m6.5900002-10.77S-5.0799999-4.2800002-5.0799999-4.2800002-6.5900002 10.77-6.5900002 10.77 6.5900002 3.21 6.5900002 3.21z" id="path96"/></g><g opacity="1" transform="translate(199.855,135.21001)" id="g98"><path fill="#5a753c" fill-opacity="1" d="m7.3150001-10.73S-5.8649998-3.1700001-5.8649998-3.1700001-7.3150001 10.73-7.3150001 10.73 7.2350001 2.6700001 7.2350001 2.6700001z" id="path97"/></g></g></g><g transform="rotate(0.95419445,69.725412,3353.8077)" opacity="1" style="display:block" id="g106"><g opacity="1" id="g105"><g opacity="1" transform="translate(31.26,166.5)" id="g101"><path fill="#3e8f6e" fill-opacity="1" d="m7.2881546 17.453291s-8.00911981-33.012746-8.00911981-33.012746S-10.05 5.9400001-10.05 5.9400001z" id="path100"/></g><g opacity="1" transform="translate(10.73,173.095)" id="g102"><path fill="#53af8a" fill-opacity="1" d="m10.48-.65499997S-7.7576098-16.435923-7.7576098-16.435923s7.02165665 32.67457 7.02165665 32.67457z" id="path101"/></g><g opacity="1" transform="translate(29.42,181.69501)" id="g103"><path fill="#738d56" fill-opacity="1" d="m6.4739828 8.1502619S-8.21-9.2550001-8.21-9.2550001-7.5599999-.465-7.5599999-.465s2.3800001 6.5599998 2.3800001 6.5599998z" id="path102"/></g><g opacity="1" transform="translate(18.225,183.86)" id="g104"><path fill="#99c26c" fill-opacity="1" d="m2.9849999-11.42s-6.4354293 21.656352-6.4354293 21.656352 9.4654293-6.3063519 9.4654293-6.3063519z" id="path103"/></g></g></g><g transform="rotate(0.55048777,-7.7607902,5979.594)" opacity="1" style="display:block" id="g112"><g opacity="1" id="g111"><g opacity="1" transform="translate(268.35501,13.935)" id="g107"><path fill="#3e8f6e" fill-opacity="1" d="m8.1255503 14.925147S-7.7693973-12.212542-7.7693973-12.212542-11.055 11.595-11.055 11.595z" id="path106"/></g><g opacity="1" transform="translate(244.98,32.514999)" id="g108"><path fill="#53af8a" fill-opacity="1" d="m12.321-6.9850001S-8.7457514-16.383934-8.7457514-16.383934 5.8363519 11.859558 5.8363519 11.859558z" id="path107"/></g><g opacity="1" transform="translate(268.17499,32.23)" id="g109"><path fill="#738d56" fill-opacity="1" d="m7.968276 3.5104825S-10.875-6.6999998-10.875-6.6999998-7.9260001 1.3-7.9260001 1.3-2.806 6.6999998-2.806 6.6999998z" id="path108"/></g><g opacity="1" transform="translate(261.01001,37.849998)" id="g110"><path fill="#99c26c" fill-opacity="1" d="m-3.7090001-12.32S-4.102385 9.7178679-4.102385 9.7178679 4.3590002 1.08 4.3590002 1.08z" id="path109"/></g></g></g><g transform="translate(54.93,1.8100014)" opacity="1" style="display:block" id="g118"><g opacity="1" id="g117"><g opacity="1" transform="translate(54.130001,16.379999)" id="g113"><path fill="#3e8f6e" fill-opacity="1" d="m-10.184519 15.625212S6.2046037-12.559776 6.2046037-12.559776 11.06 11.56 11.06 11.56z" id="path112"/></g><g opacity="1" transform="translate(77.504997,34.93)" id="g114"><path fill="#53af8a" fill-opacity="1" d="m-12.315-6.9899998s23.713417-6.9155952 23.713417-6.9155952S-4.9401264 13.487859-4.9401264 13.487859z" id="path113"/></g><g opacity="1" transform="translate(54.310001,34.639999)" id="g115"><path fill="#738d56" fill-opacity="1" d="m-9.9607601 5.6974549S10.88-6.6999998 10.88-6.6999998 6.77 2.5999999 6.77 2.5999999 2.74 6.6999998 2.74 6.6999998z" id="path114"/></g><g opacity="1" transform="translate(61.439999,40.259998)" id="g116"><path fill="#99c26c" fill-opacity="1" d="m3.75-12.32s-.2868977 24.296809-.2868977 24.296809S-4.3899999 1.08-4.3899999 1.08z" id="path115"/></g></g></g></g></svg>
